<svg width="257" height="145" viewBox="0 0 257 145" fill="none" xmlns="http://www.w3.org/2000/svg">
  <g clip-path="url(#clip0_101_2)">
    <path d="M222.27 76.65C219.3 76.65 216.42 77.03 213.67 77.75C209.1 65.76 197.92 57.04 184.59 56.02C177.14 24.2 148.61 0.5 114.51 0.5C74.75 0.5 42.52 32.73 42.52 72.5C42.52 74.24 42.6 75.97 42.73 77.68C40.07 77.01 37.29 76.65 34.43 76.65C15.69 76.65 0.5 91.84 0.5 110.57C0.5 129.3 15.69 144.49 34.42 144.49H222.27C241 144.49 256.19 129.3 256.19 110.57C256.19 91.84 241 76.65 222.27 76.65V76.65Z" fill="white" stroke="#606161" stroke-miterlimit="10"/>
    <path opacity="0.15" d="M256.19 110.57C256.19 97.48 248.78 86.14 237.92 80.48C240.77 84.83 246.17 94.33 245.77 107.46C245.03 131.46 222.55 130.87 222.55 130.87C222.55 130.87 47.85 133.54 25.33 129.39C2.82 125.24 7.04 90.59 7.04 90.55C2.93 96.16 0.5 103.08 0.5 110.57C0.5 129.3 15.69 144.49 34.42 144.49H222.27C241 144.49 256.19 129.3 256.19 110.57V110.57Z" fill="#231F20"/>
    <path opacity="0.15" d="M201.67 62.22C201.67 62.22 209.58 67.6 213.68 77.75C213.68 77.75 200.15 82.57 197.33 93.83C197.33 93.83 195.11 85.24 177.33 81.39C177.33 81.39 215.93 88.09 201.67 62.22Z" fill="#231F20"/>
    <path opacity="0.15" d="M42.72 78.23C42.72 78.23 51.4 79.27 66.51 90.38C66.51 90.38 48.88 70.74 47.33 47.1C47.33 47.1 41.44 58.38 42.71 78.23H42.72Z" fill="#231F20"/>
  </g>
  <defs>
    <clipPath id="clip0_101_2">
      <rect width="256.69" height="144.99" fill="white"/>
    </clipPath>
  </defs>
</svg>
